<?xml version="1.0" encoding="iso-8859-1"?>
<!-- Generator: Adobe Illustrator 19.0.0, SVG Export Plug-In . SVG Version: 6.00 Build 0)  -->
<svg xmlns="http://www.w3.org/2000/svg" xmlns:xlink="http://www.w3.org/1999/xlink" version="1.1" id="Layer_1" x="0px" y="0px" viewBox="0 0 488.891 488.891" style="enable-background:new 0 0 488.891 488.891;" xml:space="preserve" width="512" height="512">
<g>
	<path style="fill:#FFA829;" d="M329.09,438.496v50.394H91.344v-50.394c0-65.651,53.218-118.878,118.869-118.878   c9.289,0,18.33,1.071,27.008,3.082c21.987,5.109,41.627,16.32,57.053,31.736C315.781,375.953,329.09,405.67,329.09,438.496z"/>
	<path style="fill:#FFE563;" d="M329.09,438.496v50.394H145.359v-50.394c0-56.362,39.227-103.568,91.861-115.796   c21.987,5.109,41.627,16.32,57.053,31.736C315.781,375.953,329.09,405.67,329.09,438.496z"/>
	<path style="fill:#3E5268;" d="M314.882,309.566c147.275,0,65.606-77.034,65.606-173.468S303.883,0,210.213,0   C116.542,0,39.937,39.664,39.937,136.098s-81.669,173.468,65.606,173.468H314.882z"/>
	<path style="fill:#27394C;" d="M123.957,136.101c0,96.43-41.37,173.47,33.23,173.47h-51.64c-147.28,0-65.61-77.04-65.61-173.47   c0-96.44,76.61-136.1,170.28-136.1C162.757,0.001,123.957,39.661,123.957,136.101z"/>
	<path style="fill:#DBA175;" d="M141.846,341.221c1.95,36.08,31.81,64.73,68.37,64.73c4.45,0,8.8-0.43,13.01-1.24   c30.41-5.84,53.66-31.8,55.36-63.49"/>
	<path style="fill:#FFCBB3;" d="M329.098,162.351v78.69c0,57.93-41.45,106.18-96.3,116.72c-6.28,1.21-12.73,1.93-19.32,2.11h-0.16   c-1.03,0.03-2.06,0.04-3.1,0.04c-65.66,0-118.87-53.22-118.87-118.87v-78.69c52.22-4.32,102.17-29.64,118.87-86.2   C226.908,132.711,276.868,158.031,329.098,162.351z"/>
	<path style="fill:#E89876;" d="M231.707,357.961c-5.94,1.09-12.02,1.74-18.23,1.91h-0.16c-1.03,0.03-2.06,0.04-3.1,0.04   c-65.66,0-118.87-53.22-118.87-118.87v-78.69c14.75-1.22,29.31-4.12,43-8.92v87.61   C134.348,299.351,176.318,347.851,231.707,357.961z"/>
	<path style="fill:#FC74AF;" d="M210.217,291.592c-15.304,0-30.607-5.825-42.257-17.476c-2.929-2.929-2.929-7.678,0-10.606   c2.929-2.929,7.678-2.929,10.606,0c17.452,17.452,45.85,17.452,63.302,0c2.929-2.929,7.678-2.929,10.606,0   c2.929,2.929,2.929,7.678,0,10.606C240.824,285.767,225.52,291.592,210.217,291.592z"/>
	<g>
		<path style="fill:#27394C;" d="M158.435,231.446c-4.142,0-7.5-3.358-7.5-7.5v-29.22c0-4.142,3.358-7.5,7.5-7.5s7.5,3.358,7.5,7.5    v29.22C165.935,228.088,162.577,231.446,158.435,231.446z"/>
		<path style="fill:#27394C;" d="M262.01,231.446c-4.142,0-7.5-3.358-7.5-7.5v-29.22c0-4.142,3.358-7.5,7.5-7.5s7.5,3.358,7.5,7.5    v29.22C269.51,228.088,266.152,231.446,262.01,231.446z"/>
	</g>
	<path style="fill:#0E9C80;" d="M471.538,405.641c0,42.22-31.43,77.1-72.17,82.51c-3.62,0.49-7.32,0.74-11.08,0.74   c-45.98,0-83.25-37.27-83.25-83.25c0-45.97,37.27-83.24,83.25-83.24c3.76,0,7.46,0.25,11.08,0.74   C440.108,328.551,471.538,363.431,471.538,405.641z"/>
	<path style="fill:#70E6D1;" d="M471.538,405.641c0,42.22-31.43,77.1-72.17,82.51c-40.74-5.41-72.17-40.29-72.17-82.51   s31.43-77.09,72.17-82.5C440.108,328.551,471.538,363.431,471.538,405.641z"/>
	<path style="fill:#FFFFFF;" d="M383.285,456.049c-2.589,0-5.005-1.338-6.376-3.553l-27.424-44.308   c-2.18-3.522-1.092-8.145,2.43-10.325c3.523-2.18,8.144-1.092,10.325,2.43l20.345,32.871l35.635-71.369   c1.851-3.706,6.354-5.208,10.061-3.359c3.706,1.85,5.21,6.354,3.359,10.061l-41.644,83.402c-1.215,2.433-3.651,4.018-6.368,4.142   C383.513,456.046,383.399,456.049,383.285,456.049z"/>
</g>















</svg>
