<svg height="459pt" viewBox="0 0 459 459.8033" width="459pt" xmlns="http://www.w3.org/2000/svg"><path d="m152.402344 0h152v416h-152zm0 0" fill="#91dcf5"/><path d="m.402344 0h152v416h-152zm0 0" fill="#83d8f4"/><path d="m304.402344 48v262.558594c4.152344-1.796875 7.328125-5.292969 8.71875-9.597656l16.082031-49.441407c2.15625-6.566406 8.285156-11.003906 15.199219-11.003906 6.910156 0 13.042968 4.4375 15.199218 11.003906l16.082032 49.441407c2.164062 6.566406 8.285156 11.011718 15.199218 11.039062h33.519532v-264zm0 0" fill="#00aeef"/><g fill="#f1f2f2"><path d="m64.402344 72h176c4.417968 0 8-3.582031 8-8s-3.582032-8-8-8h-176c-4.417969 0-8 3.582031-8 8s3.582031 8 8 8zm0 0"/><path d="m64.402344 136h176c4.417968 0 8-3.582031 8-8s-3.582032-8-8-8h-176c-4.417969 0-8 3.582031-8 8s3.582031 8 8 8zm0 0"/><path d="m64.402344 200h176c4.417968 0 8-3.582031 8-8s-3.582032-8-8-8h-176c-4.417969 0-8 3.582031-8 8s3.582031 8 8 8zm0 0"/><path d="m248.402344 256c0-4.417969-3.582032-8-8-8h-176c-4.417969 0-8 3.582031-8 8s3.582031 8 8 8h176c4.417968 0 8-3.582031 8-8zm0 0"/></g><path d="m375.683594 300.960938-16.082032-49.441407c-2.15625-6.566406-8.289062-11.003906-15.199218-11.003906-6.914063 0-13.042969 4.4375-15.199219 11.003906l-16.082031 49.441407c-1.390625 4.304687-4.566406 7.800781-8.71875 9.597656-2.023438.964844-4.238282 1.460937-6.480469 1.441406h-52c-6.949219-.023438-13.117187 4.4375-15.269531 11.042969-2.152344 6.601562.203125 13.84375 5.828125 17.917969l42.082031 30.558593c5.609375 4.050781 7.96875 11.257813 5.839844 17.839844l-3.199219 9.839844 95.757813-95.757813c-.5-.789062-.929688-1.617187-1.277344-2.480468zm0 0" fill="#fbb955"/><path d="m442.882812 312h-52c-5.863281-.070312-11.210937-3.359375-13.921874-8.558594l-95.757813 95.757813-5.441406 16.800781-7.441407 22.800781c-2.171874 6.601563.167969 13.851563 5.789063 17.941407 5.621094 4.089843 13.238281 4.082031 18.851563-.023438l42-30.558594c5.632812-4.082031 13.25-4.082031 18.878906 0l42 30.558594c5.613281 4.105469 13.234375 4.113281 18.855468.023438 5.621094-4.089844 7.960938-11.339844 5.785157-17.941407l-16.078125-49.441406c-2.132813-6.582031.226562-13.789063 5.839844-17.839844l42.078124-30.558593c5.628907-4.074219 7.984376-11.316407 5.832032-17.917969-2.152344-6.605469-8.324219-11.066407-15.269532-11.042969zm0 0" fill="#fbb040"/><path d="m384.402344 96c0-4.417969-3.582032-8-8-8h-72v16h72c4.417968 0 8-3.582031 8-8zm0 0" fill="#f1f2f2"/><path d="m304.402344 152h72c4.417968 0 8-3.582031 8-8s-3.582032-8-8-8h-72" fill="#f1f2f2"/><path d="m376.402344 200c4.417968 0 8-3.582031 8-8s-3.582032-8-8-8h-72v16zm0 0" fill="#f1f2f2"/></svg>