<svg height="512" viewBox="0 0 58 58" width="512" xmlns="http://www.w3.org/2000/svg"><g id="Page-1" fill="none" fill-rule="evenodd"><g id="016---Customer-Rating" fill-rule="nonzero"><path id="Shape" d="m58 2v14c0 1.1045695-.8954305 2-2 2h-6.7344c-.1740515.0000025-.3450885.0454331-.4962.1318l-6.7694 3.8682v-3c0-.5522847-.4477153-1-1-1h-39c-1.1045695 0-2-.8954305-2-2v-14c0-1.1045695.8954305-2 2-2h54c1.1045695 0 2 .8954305 2 2z" fill="#26b99a"/><circle id="Oval" cx="29" cy="40" fill="#3d324c" r="18"/><circle id="Oval" cx="29" cy="35" fill="#b49aca" r="8"/><path id="Shape" d="m8.4289 5.2786.8655 1.8327c.06693589.14545333.20192637.2480086.36.2735l1.9353.2938c.1835267.03504198.3328073.16836817.3882826.34678475.0554753.17841657.008116.37288424-.1231826.50581525l-1.4 1.4266c-.1134814.11727-.1645471.2814524-.1376.4424l.3306 2.0143c.0374556.1821352-.0329476.3696016-.1810366.4820553-.1480889.1124536-.3475751.1299322-.5129634.0449447l-1.7312-.9515c-.13854097-.0765005-.30665903-.0765005-.4452 0l-1.731.9511c-.1653883.0849875-.3648745.0675089-.51296343-.0449447-.14808892-.1124537-.21849219-.2999201-.18103657-.4820553l.3306-2.0141c.02694715-.1609476-.02411864-.32513-.1376-.4424l-1.4-1.4266c-.13117544-.13287098-.17851973-.32718217-.12316634-.50550126s.20440809-.31166456.38776634-.34689874l1.9353-.2938c.15807363-.0254914.29306411-.12804667.36-.2735l.8655-1.8327c.07528297-.16964298.24345294-.27899922.42905-.27899922s.35376703.10935624.42905.27899922z" fill="#f3d55b"/><path id="Shape" d="m22.4289 5.2786.8655 1.8327c.0669359.14545333.2019264.2480086.36.2735l1.9353.2938c.1835267.03504198.3328073.16836817.3882826.34678475.0554753.17841657.008116.37288424-.1231826.50581525l-1.4 1.4266c-.1134814.11727-.1645471.2814524-.1376.4424l.3306 2.0143c.0374556.1821352-.0329476.3696016-.1810366.4820553-.1480889.1124536-.3475751.1299322-.5129634.0449447l-1.731-.9511c-.138541-.0765005-.306659-.0765005-.4452 0l-1.731.9511c-.1653883.0849875-.3648745.0675089-.5129634-.0449447-.148089-.1124537-.2184922-.2999201-.1810366-.4820553l.3304-2.0145c.0269471-.1609476-.0241186-.32513-.1376-.4424l-1.4-1.4266c-.1312986-.13293101-.1786579-.32739868-.1231826-.50581525.0554753-.17841658.2047559-.31174277.3882826-.34678475l1.9353-.2938c.1580736-.0254914.2930641-.12804667.36-.2735l.8655-1.8327c.075454-.1693227.243491-.27838011.4288649-.27833688s.3533601.109179.4287351.27853688z" fill="#f3d55b"/><path id="Shape" d="m36.4289 5.2786.8655 1.8327c.0669359.14545333.2019264.2480086.36.2735l1.9353.2938c.1835267.03504198.3328073.16836817.3882826.34678475.0554753.17841657.008116.37288424-.1231826.50581525l-1.4 1.4266c-.1134814.11727-.1645471.2814524-.1376.4424l.3306 2.0143c.0374556.1821352-.0329476.3696016-.1810366.4820553-.1480889.1124536-.3475751.1299322-.5129634.0449447l-1.731-.9511c-.138541-.0765005-.306659-.0765005-.4452 0l-1.731.9511c-.1653883.0849875-.3648745.0675089-.5129634-.0449447-.148089-.1124537-.2184922-.2999201-.1810366-.4820553l.3304-2.0145c.0269471-.1609476-.0241186-.32513-.1376-.4424l-1.4-1.4266c-.1312986-.13293101-.1786579-.32739868-.1231826-.50581525.0554753-.17841658.2047559-.31174277.3882826-.34678475l1.9353-.2938c.1580736-.0254914.2930641-.12804667.36-.2735l.8655-1.8327c.075454-.1693227.243491-.27838011.4288649-.27833688s.3533601.109179.4287351.27853688z" fill="#f0c419"/><path id="Shape" d="m50.4289 5.2786.8655 1.8327c.0669359.14545333.2019264.2480086.36.2735l1.9353.2938c.1835267.03504198.3328073.16836817.3882826.34678475.0554753.17841657.008116.37288424-.1231826.50581525l-1.4 1.4266c-.1134814.11727-.1645471.2814524-.1376.4424l.3306 2.0143c.0374556.1821352-.0329476.3696016-.1810366.4820553-.1480889.1124536-.3475751.1299322-.5129634.0449447l-1.731-.9511c-.138541-.0765005-.306659-.0765005-.4452 0l-1.731.9511c-.1653883.0849875-.3648745.0675089-.5129634-.0449447-.148089-.1124537-.2184922-.2999201-.1810366-.4820553l.3304-2.0145c.0269471-.1609476-.0241186-.32513-.1376-.4424l-1.4-1.4266c-.1312986-.13293101-.1786579-.32739868-.1231826-.50581525.0554753-.17841658.2047559-.31174277.3882826-.34678475l1.9353-.2938c.1580736-.0254914.2930641-.12804667.36-.2735l.8655-1.8327c.075454-.1693227.243491-.27838011.4288649-.27833688s.3533601.109179.4287351.27853688z" fill="#f0c419"/><path id="Shape" d="m41.98 52.46v.01c-3.3937493 3.5330302-8.0810372 5.5300041-12.98 5.5300041s-9.5862507-1.9969739-12.98-5.5300041v-.01c.37-5.28 6.03-9.46 12.98-9.46s12.61 4.18 12.98 9.46z" fill="#955ba5"/></g></g></svg>