<svg height="512pt" viewBox="-2 0 511 512" width="512pt" xmlns="http://www.w3.org/2000/svg"><path d="m297.117188 446.71875v65.277344h-286.222657v-65.277344c0-28.050781 22.734375-50.785156 50.773438-50.785156h184.664062c28.050781 0 50.785157 22.734375 50.785157 50.785156zm0 0" fill="#3b485b"/><path d="m297.117188 446.71875v65.277344h-268.824219v-65.277344c0-28.050781 22.734375-50.785156 50.78125-50.785156h167.257812c28.050781 0 50.785157 22.734375 50.785157 50.785156zm0 0" fill="#515f75"/><path d="m63.097656 395.9375-3.078125 78.097656 32.828125 8.207032-29.476562 29.476562h181.265625l-29.476563-29.476562 32.832032-8.207032-3.082032-78.097656" fill="#3b485b"/><path d="m216.589844 395.9375-33.066406 116.054688h-59.03125l-33.066407-116.054688" fill="#f2f2f2"/><path d="m113.558594 424.429688 40.449218 50.632812 40.046876-50.441406-40.046876-7.484375z" fill="#f74866"/><path d="m110.007812 461.140625 44-44.003906 44 44.003906 18.582032-65.203125h-125.164063zm0 0" fill="#e6e6e6"/><path d="m191.628906 330.734375v65.207031l-37.621094 21.195313-11.625-6.542969-25.996093-14.652344v-65.246094l25.996093.007813zm0 0" fill="#f9c2af"/><path d="m124.699219 511.992188 29.308593-36.929688 29.515626 36.929688" fill="#f74866"/><path d="m142.382812 330.703125-25.996093-.007813v65.246094l25.996093 14.648438v-30.167969c3.84375.375 7.734376.59375 11.675782.59375 13.132812 0 25.773437-2.144531 37.570312-6.105469v-44.175781zm0 0" fill="#ea9e8f"/><path d="m35.96875 262.082031c-19.589844 0-35.46875-14.214843-35.46875-31.75 0-17.535156 15.878906-31.75 35.46875-31.75h236.1875c19.585938 0 35.46875 14.214844 35.46875 31.75 0 17.535157-15.882812 31.75-35.46875 31.75" fill="#ea9e8f"/><path d="m272.160156 129.089844v118.101562c0 65.21875-52.875 118.089844-118.101562 118.089844-32.605469 0-62.136719-13.21875-83.503906-34.585938-21.367188-21.367187-34.585938-50.898437-34.585938-83.503906v-118.101562zm0 0" fill="#f9c2af"/><path d="m153.222656 365.277344c-32.28125-.214844-61.472656-13.390625-82.667968-34.578125-21.371094-21.378907-34.585938-50.894531-34.585938-83.507813v-118.097656h53.167969v118.097656c0 32.613282 7.261719 62.128906 19.011719 83.507813 11.566406 21.035156 27.476562 34.171875 45.074218 34.578125zm0 0" fill="#ea9e8f"/><path d="m196.070312 245.902344c-4.324218 0-7.832031-3.507813-7.832031-7.832032v-16.410156c0-4.324218 3.507813-7.832031 7.832031-7.832031 4.324219 0 7.832032 3.507813 7.832032 7.832031v16.410156c0 4.324219-3.507813 7.832032-7.832032 7.832032zm0 0" fill="#293544"/><path d="m112.050781 245.902344c-4.324219 0-7.832031-3.507813-7.832031-7.832032v-16.410156c0-4.324218 3.507812-7.832031 7.832031-7.832031s7.832031 3.507813 7.832031 7.832031v16.410156c0 4.324219-3.507812 7.832032-7.832031 7.832032zm0 0" fill="#293544"/><path d="m272.160156 129.089844v29.597656c-8.09375 5.792969-17.777344 10.878906-29.273437 15.027344-42.796875 15.414062-84.222657 10.222656-113.515625 2.054687 0 0-.011719 0-.011719-.007812-25.523437-7.101563-41.835937-16.480469-41.835937-16.480469s-10.765626 51.828125-51.554688 51.828125v-82.019531zm0 0" fill="#ea9e8f"/><path d="m242.882812 161.179688c-42.789062 15.421874-84.21875 10.230468-113.519531 2.0625 0 0-.007812 0-.007812-.007813-25.515625-7.109375-41.828125-16.488281-41.828125-16.488281s-10.773438 51.828125-51.5625 51.828125c0 0-27.136719-48-26.285156-92.414063.441406-23.03125 19.429687-40.253906 41.015624-40.253906 4.035157 0 8.15625.59375 12.261719 1.875 11.5625-31.042969 42.105469-50.691406 75.167969-48.679688 5.152344.320313 10.332031.730469 15.53125 1.199219.996094.085938 2.003906.175781 2.996094.269531.105468.007813.207031.019532.308594.027344 53.976562 5.070313 108.644531 14.941406 140.769531-20.597656 0 0 53.089843 122.300781-54.847657 161.179688zm0 0" fill="#515f75"/><path d="m138.125 19.101562c5.152344.320313 10.332031.730469 15.535156 1.199219-47.625-2.007812-85.460937 102.871094-24.304687 142.933594-25.515625-7.109375-41.828125-16.488281-41.828125-16.488281s-10.773438 51.828125-51.5625 51.828125c0 0-27.136719-48-26.285156-92.414063.441406-23.03125 19.429687-40.253906 41.015624-40.253906 4.035157 0 8.15625.59375 12.261719 1.875 11.5625-31.042969 42.105469-50.6875 75.167969-48.679688zm0 0" fill="#3b485b"/><path d="m156.984375 20.609375c-.113281-.019531-.214844-.027344-.328125-.039063.101562.011719.203125.019532.308594.03125zm0 0" fill="#f4af9d"/><path d="m154.0625 308.65625c-12.5 0-25-4.753906-34.511719-14.269531-3.058593-3.058594-3.058593-8.019531 0-11.078125 3.058594-3.058594 8.019531-3.058594 11.074219 0 12.921875 12.921875 33.949219 12.921875 46.871094 0 3.058594-3.058594 8.015625-3.058594 11.074218 0 3.058594 3.058594 3.058594 8.019531 0 11.078125-9.515624 9.511719-22.011718 14.269531-34.507812 14.269531zm0 0" fill="#e06e86"/><path d="m272.246094 228.855469h235.953125v283.144531h-235.953125zm0 0" fill="#e6e6e6"/><path d="m435.601562 212.53125v34.472656c0 9.027344-7.320312 16.335938-16.347656 16.335938h-58.070312c-9.015625 0-16.335938-7.308594-16.335938-16.335938v-34.472656c0-9.027344 7.320313-16.347656 16.335938-16.347656h58.070312c9.027344-.003906 16.347656 7.320312 16.347656 16.347656zm0 0" fill="#f4af9d"/><path d="m435.601562 212.53125v34.472656c0 9.027344-7.320312 16.335938-16.347656 16.335938h-30.640625c-9.027343 0-16.335937-7.308594-16.335937-16.335938v-34.472656c0-9.027344 7.308594-16.347656 16.335937-16.347656h30.640625c9.027344-.003906 16.347656 7.320312 16.347656 16.347656zm0 0" fill="#f9c2af"/><g fill="#515f75"><path d="m459.632812 321.742188h-136.738281c-4.328125 0-7.832031-3.507813-7.832031-7.832032 0-4.328125 3.503906-7.832031 7.832031-7.832031h136.738281c4.328126 0 7.832032 3.503906 7.832032 7.832031 0 4.324219-3.503906 7.832032-7.832032 7.832032zm0 0"/><path d="m459.632812 367.320312h-136.738281c-4.328125 0-7.832031-3.507812-7.832031-7.832031s3.503906-7.832031 7.832031-7.832031h136.738281c4.328126 0 7.832032 3.507812 7.832032 7.832031s-3.503906 7.832031-7.832032 7.832031zm0 0"/><path d="m459.632812 412.898438h-136.738281c-4.328125 0-7.832031-3.503907-7.832031-7.832032 0-4.324218 3.503906-7.832031 7.832031-7.832031h136.738281c4.328126 0 7.832032 3.507813 7.832032 7.832031 0 4.328125-3.503906 7.832032-7.832032 7.832032zm0 0"/><path d="m438.957031 458.480469h-95.382812c-4.328125 0-7.832031-3.507813-7.832031-7.832031 0-4.328126 3.503906-7.832032 7.832031-7.832032h95.382812c4.324219 0 7.832031 3.503906 7.832031 7.832032 0 4.324218-3.507812 7.832031-7.832031 7.832031zm0 0"/></g><path d="m321.886719 473.507812-38.488281 38.488282h-3.246094l-46.511719-46.507813 40.113281-40.113281c4.433594-4.433594 11.613282-4.421875 16.042969 0l19.386719 19.398438 12.703125 12.703124c4.433593 4.429688 4.433593 11.601563 0 16.03125zm0 0" fill="#f4af9d"/><path d="m321.886719 473.507812-38.488281 38.488282h-3.246094l-27.113282-27.109375 40.113282-40.113281c4.429687-4.433594 11.597656-4.433594 16.03125 0l12.703125 12.703124c4.433593 4.429688 4.433593 11.601563 0 16.03125zm0 0" fill="#f9c2af"/><path d="m280.15625 512h-93.019531l46.515625-46.515625zm0 0" fill="#515f75"/><path d="m252.90625 484.738281-27.265625 27.261719h-38.503906l46.515625-46.515625zm0 0" fill="#3b485b"/><path d="m279.292969 438.746094c-2.007813 0-4.011719-.765625-5.539063-2.296875-3.058594-3.058594-3.058594-8.015625 0-11.074219l35.808594-35.808594c3.058594-3.058594 8.019531-3.058594 11.078125 0s3.058594 8.015625 0 11.074219l-35.8125 35.808594c-1.527344 1.53125-3.53125 2.296875-5.535156 2.296875zm0 0" fill="#f4af9d"/></svg>