<svg height="512pt" viewBox="0 -72 512 512" width="512pt" xmlns="http://www.w3.org/2000/svg"><path d="m33.183594 368.265625c-18.328125 0-33.183594-14.859375-33.183594-33.1875v-247.71875c0-5.6875 4.613281-10.300781 10.300781-10.300781h56.066407v258.019531c0 18.328125-14.855469 33.1875-33.183594 33.1875zm0 0" fill="#b7c1c6"/><path d="m66.363281 77.0625v258.019531c0 18.324219-14.855469 33.179688-33.179687 33.179688-3.214844 0-6.328125-.460938-9.273438-1.308594 13.816406-4.015625 23.910156-16.757813 23.910156-31.871094v-258.019531zm0 0" fill="#93a3af"/><path d="m512 10.300781v324.777344c0 18.332031-14.859375 33.1875-33.1875 33.1875h-445.589844c18.316406-.023437 33.148438-14.871094 33.148438-33.1875v-324.777344c0-5.6875 4.613281-10.300781 10.304687-10.300781h425.023438c5.6875 0 10.300781 4.613281 10.300781 10.300781zm0 0" fill="#ebeef2"/><path d="m512 10.304688v324.777343c0 18.324219-14.855469 33.179688-33.183594 33.179688h-27.164062c18.328125 0 33.191406-14.855469 33.191406-33.179688v-324.777343c0-5.695313-4.613281-10.30078175-10.300781-10.30078175h27.15625c5.6875 0 10.300781 4.60546875 10.300781 10.30078175zm0 0" fill="#d3d8df"/><path d="m300.144531 57.605469v105.035156c0 5.6875-4.609375 10.300781-10.300781 10.300781h-166.636719c-5.6875 0-10.300781-4.613281-10.300781-10.300781v-105.035156c0-5.691407 4.613281-10.300781 10.300781-10.300781h166.636719c5.691406 0 10.300781 4.613281 10.300781 10.300781zm0 0" fill="#a0d37d"/><path d="m300.144531 122.289062v40.351563c0 5.6875-4.609375 10.300781-10.300781 10.300781h-130.257812l83.394531-83.394531c2.253906-2.253906 5.792969-2.578125 8.417969-.773437l35.800781 24.617187zm0 0" fill="#d88852"/><path d="m220.710938 172.941406h-97.503907c-5.6875 0-10.300781-4.613281-10.300781-10.300781v-19.785156l41.523438-28.550781c2.625-1.808594 6.167968-1.480469 8.421874.773437zm0 0" fill="#e39f6e"/><g fill="#93a3af"><path d="m451.652344 230.03125h-338.746094c-4.265625 0-7.726562-3.460938-7.726562-7.726562 0-4.269532 3.460937-7.726563 7.726562-7.726563h338.746094c4.265625 0 7.726562 3.457031 7.726562 7.726563 0 4.265624-3.460937 7.726562-7.726562 7.726562zm0 0"/><path d="m451.652344 259.976562h-338.746094c-4.265625 0-7.726562-3.457031-7.726562-7.722656 0-4.269531 3.460937-7.726562 7.726562-7.726562h338.746094c4.265625 0 7.726562 3.457031 7.726562 7.726562 0 4.265625-3.460937 7.722656-7.726562 7.722656zm0 0"/><path d="m451.652344 289.925781h-338.746094c-4.265625 0-7.726562-3.460937-7.726562-7.726562 0-4.269531 3.460937-7.726563 7.726562-7.726563h338.746094c4.265625 0 7.726562 3.457032 7.726562 7.726563 0 4.265625-3.460937 7.726562-7.726562 7.726562zm0 0"/><path d="m391.582031 319.871094h-22.015625c-4.265625 0-7.726562-3.457032-7.726562-7.726563 0-4.265625 3.460937-7.722656 7.726562-7.722656h22.015625c4.265625 0 7.726563 3.457031 7.726563 7.722656 0 4.269531-3.457032 7.726563-7.726563 7.726563zm0 0"/><path d="m339.046875 319.871094h-226.140625c-4.265625 0-7.726562-3.457032-7.726562-7.726563 0-4.265625 3.460937-7.722656 7.726562-7.722656h226.140625c4.265625 0 7.722656 3.457031 7.722656 7.722656.003907 4.269531-3.457031 7.726563-7.722656 7.726563zm0 0"/></g><path d="m460.085938 87.609375h-110.738282c-5.691406 0-10.300781-4.613281-10.300781-10.300781v-19.703125c0-5.691407 4.609375-10.300781 10.300781-10.300781h110.738282c5.691406 0 10.300781 4.609374 10.300781 10.300781v19.703125c0 5.6875-4.613281 10.300781-10.300781 10.300781zm0 0" fill="#eb5777"/><path d="m460.085938 172.941406h-110.738282c-5.691406 0-10.300781-4.613281-10.300781-10.300781v-42.214844c0-5.691406 4.609375-10.304687 10.300781-10.304687h110.738282c5.691406 0 10.300781 4.613281 10.300781 10.304687v42.214844c0 5.6875-4.613281 10.300781-10.300781 10.300781zm0 0" fill="#5f9eeb"/></svg>