<svg id="Layer_3" enable-background="new 0 0 64 64" height="512" viewBox="0 0 64 64" width="512" xmlns="http://www.w3.org/2000/svg"><path d="m53 62h-42c-1.105 0-2-.895-2-2v-54c0-1.105.895-2 2-2h42c1.105 0 2 .895 2 2v54c0 1.105-.895 2-2 2z" fill="#4d5d7a"/><path d="m13 8h38v50h-38z" fill="#ebf7fe"/><path d="m19 2h26v8h-26z" fill="#c18e59"/><path d="m41 24-4 2 1-4-3-3h4l2-4 2 4h4l-3 3 1 4z" fill="#f5b953"/><path d="m41 38-4 2 1-4-3-3h4l2-4 2 4h4l-3 3 1 4z" fill="#f5b953"/><path d="m41 52-4 2 1-4-3-3h4l2-4 2 4h4l-3 3 1 4z" fill="#f5b953"/><g fill="#8892a0"><path d="m19 27c-.379 0-.725-.214-.895-.553l-2-4 1.789-.895 1.106 2.212 3.105-6.211 1.789.895-4 8c-.169.338-.515.552-.894.552z"/><path d="m19 41c-.379 0-.725-.214-.895-.553l-2-4 1.789-.895 1.106 2.212 3.105-6.211 1.789.895-4 8c-.169.338-.515.552-.894.552z"/><path d="m20 55c-.379 0-.725-.214-.895-.553l-2-4 1.789-.895 1.106 2.212 3.105-6.211 1.789.895-4 8c-.169.338-.515.552-.894.552z"/><path d="m24 25h10v2h-10z"/><path d="m24 39h10v2h-10z"/><path d="m24 53h10v2h-10z"/><path d="m24 49h10v2h-10z"/><path d="m24 35h10v2h-10z"/><path d="m24 21h10v2h-10z"/></g></svg>