<svg id="Layer_1" height="512" viewBox="0 0 128 128" width="512" xmlns="http://www.w3.org/2000/svg" data-name="Layer 1"><path d="m103.81 100.54v2.78 18.18h-97.31v-115h97.31v63.3" fill="#e4e4e4"/><path d="m33.736 32.39h8.566v19.663h-8.566z" fill="#30ade0"/><path d="m42.302 24.05h8.566v28.002h-8.566z" fill="#278eb8"/><path d="m50.868 39.085h8.566v12.968h-8.566z" fill="#30ade0"/><path d="m59.433 16.249h8.566v35.804h-8.566z" fill="#278eb8"/><g fill="#30ade0"><path d="m67.999 24.05h8.566v28.002h-8.566z"/><path d="m81.82 53.8h-53.333a1.75 1.75 0 1 1 0-3.5h53.333a1.75 1.75 0 0 1 0 3.5z"/><path d="m49.863 89.589h-32.227a1.75 1.75 0 1 1 0-3.5h32.227a1.75 1.75 0 0 1 0 3.5z"/><path d="m49.86 99.063h-32.227a1.75 1.75 0 0 1 0-3.5h32.227a1.75 1.75 0 0 1 0 3.5z"/><path d="m49.86 108.538h-32.227a1.75 1.75 0 0 1 0-3.5h32.227a1.75 1.75 0 0 1 0 3.5z"/><path d="m49.863 70.641h-32.227a1.75 1.75 0 1 1 0-3.5h32.227a1.75 1.75 0 0 1 0 3.5z"/><path d="m49.86 80.114h-32.227a1.75 1.75 0 0 1 0-3.5h32.227a1.75 1.75 0 0 1 0 3.5z"/></g><path d="m106.5 107.76a1.743 1.743 0 0 1 -1.237-.513l-4.01-4.01a1.75 1.75 0 1 1 2.475-2.475l4.01 4.009a1.75 1.75 0 0 1 -1.237 2.988z" fill="#278eb8"/><path d="m120.5 120.5a3.4 3.4 0 0 1 -4.809 0l-11.841-11.841 1.289-1.289 2.231-2.231 1.289-1.289 11.841 11.85a3.4 3.4 0 0 1 0 4.8z" fill="#30ade0"/><circle cx="85.165" cy="85.165" fill="#30ade0" r="24.169"/><path d="m102.334 86.916a1.75 1.75 0 0 1 -1.75-1.75 15.355 15.355 0 0 0 -10.863-14.733 1.75 1.75 0 1 1 1.037-3.343 18.838 18.838 0 0 1 13.326 18.075 1.75 1.75 0 0 1 -1.75 1.751z" fill="#278eb8"/></svg>