<?xml version="1.0" encoding="iso-8859-1"?>
<!-- Generator: Adobe Illustrator 19.0.0, SVG Export Plug-In . SVG Version: 6.00 Build 0)  -->
<svg version="1.1" id="Layer_1" xmlns="http://www.w3.org/2000/svg" xmlns:xlink="http://www.w3.org/1999/xlink" x="0px" y="0px"
	 viewBox="0 0 491.52 491.52" style="enable-background:new 0 0 491.52 491.52;" xml:space="preserve">
<rect y="141.236" style="fill:#EBF0F3;" width="491.52" height="285.322"/>
<rect y="224.881" style="fill:#44C4A1;" width="491.52" height="161.398"/>
<g>
	<rect x="134.733" y="400.487" style="fill:#64798A;" width="222.054" height="8.934"/>
	<rect x="93.03" y="193.224" style="fill:#64798A;" width="170.752" height="8.934"/>
	<rect x="93.03" y="166.431" style="fill:#64798A;" width="120.1" height="8.934"/>
</g>
<polygon style="fill:#E56353;" points="67.483,151.646 33.668,151.646 16.76,180.931 33.668,210.216 67.483,210.216 84.391,180.931 
	"/>
<g>
	<rect x="322.714" y="170.599" style="fill:#D5D6DB;" width="20.48" height="31.539"/>
	<rect x="345.907" y="170.599" style="fill:#D5D6DB;" width="20.48" height="31.539"/>
	<rect x="369.101" y="170.599" style="fill:#D5D6DB;" width="20.48" height="31.539"/>
	<rect x="392.294" y="170.599" style="fill:#D5D6DB;" width="20.48" height="31.539"/>
	<rect x="415.488" y="170.599" style="fill:#D5D6DB;" width="20.48" height="31.539"/>
	<rect x="438.63" y="170.599" style="fill:#D5D6DB;" width="20.48" height="31.539"/>
</g>
<g>
	<rect x="24.571" y="260.199" style="fill:#EBF0F3;" width="276.347" height="8.934"/>
	<rect x="24.571" y="301.338" style="fill:#EBF0F3;" width="276.347" height="8.934"/>
	<rect x="337.92" y="342.022" style="fill:#EBF0F3;" width="129.024" height="8.934"/>
	<rect x="337.92" y="260.199" style="fill:#EBF0F3;" width="129.024" height="42.051"/>
</g>
<rect x="241.155" y="238.941" transform="matrix(-0.8536 -0.521 0.521 -0.8536 493.8422 625.3761)" style="fill:#DC8744;" width="187.301" height="8.694"/>
<path style="fill:#64798A;" d="M397.595,190.837c-1.578-4.105-0.767-8.752,1.784-12.335l49.388-67.534
	c9.574-13.455,6.716-32.735-7.234-41.571c-14.149-8.963-32.878-3.852-40.543,10.963l-38.055,75.901
	c-2.021,3.906-5.782,6.753-10.154,7.226c-12.836,1.391-24.907,8.505-32.154,20.377l73.544,44.886
	C401.418,216.876,402.226,202.888,397.595,190.837z"/>
<path style="fill:#FCD462;" d="M435.592,247.651l-150.713-91.985c-5.227-3.19-12.051-1.539-15.242,3.689l-18.723,30.677
	L420.558,293.57l18.723-30.677C442.472,257.666,440.82,250.842,435.592,247.651z"/>
<ellipse transform="matrix(-0.8536 -0.521 0.521 -0.8536 529.5492 592.2653)" style="fill:#F6C358;" cx="348.006" cy="221.715" rx="14.101" ry="14.095"/>
<ellipse style="fill:#FFFFFF;" cx="348.006" cy="221.715" rx="12.897" ry="12.897"/>
<path style="fill:#EBF0F3;" d="M358.197,220.349c-0.205,1.303-0.655,2.59-1.385,3.786c-2.978,4.879-9.348,6.421-14.228,3.443
	c-2.766-1.688-4.413-4.475-4.818-7.454c-0.629,4.013,1.145,8.193,4.828,10.441c4.879,2.978,11.249,1.436,14.227-3.443
	C358.111,225.009,358.506,222.624,358.197,220.349z"/>
<path style="fill:#E56353;" d="M295.9,310.544c-23.393,11.255-33.267,39.438-22.014,62.829s39.437,33.265,62.83,22.011
	c23.389-11.253,33.263-39.436,22.01-62.827C347.473,309.166,319.29,299.292,295.9,310.544z M297.435,313.734
	c18.783-9.036,40.889-3.327,53.204,12.489l-7.891,3.796c-10.101-11.631-27.097-15.627-41.633-8.634
	c-14.536,6.993-22.022,22.768-19.24,37.92l-7.892,3.797C269.314,343.608,278.653,322.769,297.435,313.734z M285.165,357.722
	c-2.027-13.328,4.718-27.006,17.485-33.148c12.765-6.141,27.66-2.875,36.808,7.027L285.165,357.722z M347.448,348.209
	c2.027,13.328-4.717,27.005-17.481,33.146c-12.767,6.142-27.662,2.875-36.811-7.026L347.448,348.209z M335.182,392.195
	c-18.782,9.036-40.891,3.328-53.207-12.487l7.891-3.796c10.103,11.629,27.101,15.625,41.636,8.632
	c14.535-6.993,22.019-22.767,19.236-37.917l7.892-3.797C363.301,362.323,353.965,383.159,335.182,392.195z"/>
<g>
	<path style="fill:#FFFFFF;" d="M280.365,363.054l1.769,13.742l2.16-1.039l-0.388-2.968l3.813-1.835l2.083,2.152l2.16-1.039
		l-9.633-9.958L280.365,363.054z M283.555,370.099l-0.507-3.994l2.785,2.897L283.555,370.099z"/>
	<path style="fill:#FFFFFF;" d="M290.525,358.166l-3.212,1.545l5.701,11.85l2.028-0.976l-1.59-3.305l1.213-0.584
		c1.344-0.647,2.18-1.469,2.509-2.462c0.328-0.993,0.141-2.22-0.564-3.685c-0.703-1.461-1.54-2.394-2.524-2.794
		C293.11,357.357,291.922,357.494,290.525,358.166z M294.841,363.133c-0.072,0.474-0.444,0.872-1.122,1.198l-1.369,0.659
		l-1.916-3.983l1.159-0.558c0.667-0.321,1.229-0.415,1.685-0.276c0.459,0.132,0.846,0.542,1.176,1.228
		C294.782,362.083,294.915,362.663,294.841,363.133z"/>
	<path style="fill:#FFFFFF;" d="M299.334,353.928l-3.212,1.545l5.701,11.85l2.028-0.976l-1.59-3.305l1.215-0.584
		c1.344-0.647,2.179-1.468,2.507-2.461c0.328-0.993,0.141-2.22-0.564-3.685c-0.703-1.461-1.54-2.394-2.524-2.794
		C301.919,353.118,300.733,353.255,299.334,353.928z M303.651,358.894c-0.073,0.474-0.445,0.873-1.123,1.199l-1.369,0.659
		l-1.916-3.983l1.16-0.558c0.666-0.32,1.229-0.415,1.685-0.276c0.459,0.132,0.846,0.542,1.176,1.228
		C303.593,357.844,303.725,358.424,303.651,358.894z"/>
	<path style="fill:#FFFFFF;" d="M314.201,351.619c-0.664-1.38-1.441-2.236-2.349-2.568c-0.899-0.331-2.054-0.157-3.47,0.524
		l-3.45,1.66l5.701,11.85l2.028-0.976l-1.82-3.782l1.41-0.678l3.837,2.811l2.497-1.202l-4.342-3.132
		C315.127,355.019,315.115,353.518,314.201,351.619z M312.434,354.202c-0.109,0.415-0.514,0.791-1.203,1.123l-1.488,0.716
		l-1.689-3.511l1.523-0.733c0.654-0.315,1.164-0.412,1.54-0.302c0.375,0.111,0.716,0.486,1.024,1.125
		C312.448,353.259,312.541,353.787,312.434,354.202z"/>
	<path style="fill:#FFFFFF;" d="M318.424,344.409c-1.344,0.647-2.192,1.775-2.546,3.387c-0.358,1.614-0.117,3.287,0.72,5.027
		c0.837,1.74,1.996,2.977,3.48,3.704c1.48,0.729,2.891,0.77,4.235,0.124c1.345-0.647,2.2-1.779,2.553-3.39
		c0.358-1.614,0.115-3.291-0.722-5.031c-0.837-1.74-1.994-2.973-3.478-3.7C321.187,343.801,319.77,343.762,318.424,344.409z
		 M324.597,352.305c-0.162,0.989-0.625,1.671-1.38,2.033c-0.763,0.367-1.584,0.304-2.457-0.188c-0.88-0.488-1.568-1.264-2.077-2.322
		c-0.507-1.054-0.686-2.08-0.52-3.076c0.157-0.996,0.621-1.677,1.383-2.044c0.754-0.363,1.576-0.3,2.454,0.198
		c0.882,0.492,1.571,1.272,2.079,2.326C324.588,350.291,324.765,351.313,324.597,352.305z"/>
	<polygon style="fill:#FFFFFF;" points="331.827,347.586 325.878,341.158 323.677,342.216 333.037,352.306 334.755,351.479 
		332.713,337.869 330.513,338.928 	"/>
	<polygon style="fill:#FFFFFF;" points="339.211,343.428 343.287,341.467 342.202,339.212 338.126,341.172 336.952,338.731 
		341.485,336.55 340.352,334.194 333.79,337.351 339.491,349.201 346.195,345.976 345.069,343.635 340.393,345.884 	"/>
	<path style="fill:#FFFFFF;" d="M349.996,331.463c-1.366-0.617-2.857-0.534-4.481,0.247l-3.212,1.545l5.701,11.85l3.111-1.497
		c1.737-0.836,2.771-1.992,3.097-3.475c0.329-1.48,0.05-3.14-0.835-4.981C352.488,333.309,351.363,332.08,349.996,331.463z
		 M351.899,339.223c-0.207,0.849-0.773,1.498-1.702,1.945l-1.291,0.621l-3.466-7.203l1.137-0.547
		c1.029-0.495,1.947-0.55,2.749-0.163c0.801,0.388,1.482,1.162,2.042,2.325C351.929,337.366,352.103,338.371,351.899,339.223z"/>
</g>
<g>
</g>
<g>
</g>
<g>
</g>
<g>
</g>
<g>
</g>
<g>
</g>
<g>
</g>
<g>
</g>
<g>
</g>
<g>
</g>
<g>
</g>
<g>
</g>
<g>
</g>
<g>
</g>
<g>
</g>
</svg>
